<svg width="222" height="39" viewBox="0 0 222 39" fill="none" xmlns="http://www.w3.org/2000/svg">
<path d="M15.4336 29H13.2773V21.0078H4.48828V29H2.33203V11.8672H4.48828V19.1094H13.2773V11.8672H15.4336V29ZM25.5469 29H23.3789V13.7656H18.0234V11.8672H30.8672V13.7656H25.5469V29ZM33.4805 29V11.8672H35.6367V27.0781H43.125V29H33.4805ZM62.0156 24.418C62.0156 25.9102 61.4766 27.0859 60.3984 27.9453C59.3203 28.8047 57.8203 29.2344 55.8984 29.2344C53.8672 29.2344 52.2969 28.9648 51.1875 28.4258V26.3633C51.9141 26.6758 52.707 26.9219 53.5664 27.1016C54.4336 27.2812 55.2422 27.3711 55.9922 27.3711C57.2734 27.3711 58.2383 27.125 58.8867 26.6328C59.5352 26.1406 59.8594 25.4648 59.8594 24.6055C59.8594 24.0352 59.7422 23.5664 59.5078 23.1992C59.2734 22.832 58.8789 22.4883 58.3242 22.168C57.7773 21.8477 56.9453 21.4844 55.8281 21.0781C54.2422 20.5 53.1094 19.8203 52.4297 19.0391C51.75 18.25 51.4102 17.2344 51.4102 15.9922C51.4102 14.6562 51.9102 13.5938 52.9102 12.8047C53.918 12.0156 55.2422 11.6211 56.8828 11.6211C58.5938 11.6211 60.168 11.9414 61.6055 12.582L60.9375 14.4336C59.4688 13.8242 58.1016 13.5195 56.8359 13.5195C55.8203 13.5195 55.0234 13.7383 54.4453 14.1758C53.875 14.6133 53.5898 15.2266 53.5898 16.0156C53.5898 16.5781 53.6992 17.0469 53.918 17.4219C54.1445 17.7891 54.5039 18.125 54.9961 18.4297C55.4961 18.7344 56.2773 19.082 57.3398 19.4727C58.6133 19.9414 59.5625 20.3984 60.1875 20.8438C60.8125 21.2812 61.2734 21.7891 61.5703 22.3672C61.8672 22.9375 62.0156 23.6211 62.0156 24.418ZM73.125 29L72.7148 27.1719H72.6211C71.9805 27.9766 71.3398 28.5234 70.6992 28.8125C70.0664 29.0938 69.2656 29.2344 68.2969 29.2344C67.0312 29.2344 66.0391 28.9023 65.3203 28.2383C64.6016 27.5742 64.2422 26.6367 64.2422 25.4258C64.2422 22.8164 66.3008 21.4492 70.418 21.3242L72.5977 21.2422V20.4805C72.5977 19.5039 72.3867 18.7852 71.9648 18.3242C71.543 17.8555 70.8672 17.6211 69.9375 17.6211C69.2578 17.6211 68.6133 17.7227 68.0039 17.9258C67.4023 18.1289 66.8359 18.3555 66.3047 18.6055L65.6602 17.0234C66.3086 16.6797 67.0156 16.4102 67.7812 16.2148C68.5469 16.0195 69.3047 15.9219 70.0547 15.9219C71.6094 15.9219 72.7656 16.2656 73.5234 16.9531C74.2812 17.6406 74.6602 18.7344 74.6602 20.2344V29H73.125ZM68.7773 27.5352C69.957 27.5352 70.8828 27.2188 71.5547 26.5859C72.2344 25.9453 72.5742 25.0391 72.5742 23.8672V22.707L70.6758 22.7891C69.1992 22.8438 68.1211 23.0781 67.4414 23.4922C66.7695 23.9062 66.4336 24.5586 66.4336 25.4492C66.4336 26.1211 66.6367 26.6367 67.043 26.9961C67.457 27.3555 68.0352 27.5352 68.7773 27.5352ZM86.6016 29L86.1914 27.1719H86.0977C85.457 27.9766 84.8164 28.5234 84.1758 28.8125C83.543 29.0938 82.7422 29.2344 81.7734 29.2344C80.5078 29.2344 79.5156 28.9023 78.7969 28.2383C78.0781 27.5742 77.7188 26.6367 77.7188 25.4258C77.7188 22.8164 79.7773 21.4492 83.8945 21.3242L86.0742 21.2422V20.4805C86.0742 19.5039 85.8633 18.7852 85.4414 18.3242C85.0195 17.8555 84.3438 17.6211 83.4141 17.6211C82.7344 17.6211 82.0898 17.7227 81.4805 17.9258C80.8789 18.1289 80.3125 18.3555 79.7812 18.6055L79.1367 17.0234C79.7852 16.6797 80.4922 16.4102 81.2578 16.2148C82.0234 16.0195 82.7812 15.9219 83.5312 15.9219C85.0859 15.9219 86.2422 16.2656 87 16.9531C87.7578 17.6406 88.1367 18.7344 88.1367 20.2344V29H86.6016ZM82.2539 27.5352C83.4336 27.5352 84.3594 27.2188 85.0312 26.5859C85.7109 25.9453 86.0508 25.0391 86.0508 23.8672V22.707L84.1523 22.7891C82.6758 22.8438 81.5977 23.0781 80.918 23.4922C80.2461 23.9062 79.9102 24.5586 79.9102 25.4492C79.9102 26.1211 80.1133 26.6367 80.5195 26.9961C80.9336 27.3555 81.5117 27.5352 82.2539 27.5352ZM94.2422 29H92.1328V10.7656H94.2422V29ZM103.793 29.2344C101.863 29.2344 100.348 28.6523 99.2461 27.4883C98.1523 26.3164 97.6055 24.707 97.6055 22.6602C97.6055 20.5977 98.1172 18.957 99.1406 17.7383C100.164 16.5117 101.547 15.8984 103.289 15.8984C104.906 15.8984 106.195 16.4219 107.156 17.4688C108.117 18.5078 108.598 19.918 108.598 21.6992V22.9766H99.7852C99.8242 24.4375 100.195 25.5469 100.898 26.3047C101.602 27.0625 102.598 27.4414 103.887 27.4414C104.574 27.4414 105.227 27.3828 105.844 27.2656C106.461 27.1406 107.184 26.9023 108.012 26.5508V28.4023C107.301 28.707 106.633 28.9219 106.008 29.0469C105.383 29.1719 104.645 29.2344 103.793 29.2344ZM103.266 17.6211C102.258 17.6211 101.461 17.9453 100.875 18.5938C100.289 19.2422 99.9414 20.1445 99.832 21.3008H106.383C106.367 20.0977 106.09 19.1836 105.551 18.5586C105.012 17.9336 104.25 17.6211 103.266 17.6211ZM113.977 29H111.867V10.7656H113.977V29ZM122.613 29.2344C120.941 29.2344 119.645 28.6562 118.723 27.5C117.801 26.3438 117.34 24.707 117.34 22.5898C117.34 20.4883 117.801 18.8477 118.723 17.668C119.652 16.4883 120.957 15.8984 122.637 15.8984C124.363 15.8984 125.691 16.5312 126.621 17.7969H126.773C126.75 17.6406 126.719 17.3281 126.68 16.8594C126.641 16.3828 126.621 16.0625 126.621 15.8984V10.7656H128.73V29H127.031L126.715 27.2773H126.621C125.723 28.582 124.387 29.2344 122.613 29.2344ZM122.953 27.4883C124.234 27.4883 125.168 27.1406 125.754 26.4453C126.348 25.7422 126.645 24.5938 126.645 23V22.6133C126.645 20.8242 126.344 19.5508 125.742 18.793C125.148 18.0273 124.211 17.6445 122.93 17.6445C121.844 17.6445 121.004 18.0781 120.41 18.9453C119.816 19.8047 119.52 21.0352 119.52 22.6367C119.52 24.2305 119.812 25.4375 120.398 26.2578C120.992 27.0781 121.844 27.4883 122.953 27.4883ZM138.293 29.2344C136.363 29.2344 134.848 28.6523 133.746 27.4883C132.652 26.3164 132.105 24.707 132.105 22.6602C132.105 20.5977 132.617 18.957 133.641 17.7383C134.664 16.5117 136.047 15.8984 137.789 15.8984C139.406 15.8984 140.695 16.4219 141.656 17.4688C142.617 18.5078 143.098 19.918 143.098 21.6992V22.9766H134.285C134.324 24.4375 134.695 25.5469 135.398 26.3047C136.102 27.0625 137.098 27.4414 138.387 27.4414C139.074 27.4414 139.727 27.3828 140.344 27.2656C140.961 27.1406 141.684 26.9023 142.512 26.5508V28.4023C141.801 28.707 141.133 28.9219 140.508 29.0469C139.883 29.1719 139.145 29.2344 138.293 29.2344ZM137.766 17.6211C136.758 17.6211 135.961 17.9453 135.375 18.5938C134.789 19.2422 134.441 20.1445 134.332 21.3008H140.883C140.867 20.0977 140.59 19.1836 140.051 18.5586C139.512 17.9336 138.75 17.6211 137.766 17.6211ZM155.133 29V20.7734C155.133 19.7266 154.898 18.9492 154.43 18.4414C153.969 17.9258 153.242 17.668 152.25 17.668C150.93 17.668 149.969 18.0352 149.367 18.7695C148.773 19.4961 148.477 20.6836 148.477 22.332V29H146.367V16.1328H148.066L148.383 17.8906H148.5C148.898 17.2578 149.457 16.7695 150.176 16.4258C150.895 16.0742 151.688 15.8984 152.555 15.8984C154.133 15.8984 155.305 16.2812 156.07 17.0469C156.836 17.8125 157.219 19.0039 157.219 20.6211V29H155.133Z" fill="#F5F6F6"/>
<g clip-path="url(#clip0_3446_2257)">
<path d="M183.035 0.0344238C183.035 0.0344238 182.325 12.6551 188.25 18.862C192.893 23.7241 196.22 24.9827 201.747 25.1723C206.65 24.8965 207.828 24.2758 208.521 23.9137C208.469 23.6379 208.382 23.1379 207.966 22.1551C207.568 21.1551 207.066 20.3448 207.066 20.3448C207.066 20.3448 205.298 21.6034 203.341 21.6034C201.383 21.6034 198.091 20.9137 196.48 16.2758C194.816 11.4999 194.608 4.12063 194.608 2.39649C194.608 0.672355 194.66 0.086148 194.66 0.086148L183.035 0.0344238Z" fill="#F5F6F6"/>
<path d="M221.879 38.9484C221.879 38.9484 223.092 25.8794 217.357 19.6035C212.869 14.6725 209.508 13.6897 204.155 13.5173C199.407 13.7932 197.969 14.7415 197.311 15.1035C197.363 15.3794 197.346 15.6035 197.744 16.6035C198.143 17.6035 198.628 18.3449 198.628 18.3449C198.628 18.3449 200.551 17.1553 202.439 17.1553C204.328 17.1553 207.637 18.0691 209.196 22.776C210.79 27.6035 210.652 34.8277 210.652 36.5691C210.652 38.3104 210.6 38.8966 210.6 38.8966L221.844 38.9484H221.879Z" fill="#F5F6F6"/>
<path d="M210.825 0H221.861C221.861 0 222 7.27586 221.601 9.51724C220.44 15.8966 217.72 18.8276 217.72 18.8276C217.72 18.8276 216.715 17.4138 214.325 15.7759C211.934 14.1207 209.854 13.3448 209.854 13.3448C209.854 13.3448 210.651 9.2931 210.773 6.94828C210.911 4.60345 210.825 0.0172414 210.825 0.0172414" fill="#F5F6F6"/>
<path d="M195.162 39H183.086C183.086 39 183.277 34.1034 184.161 29.7069C185.356 23.8103 188.388 20.5 188.388 20.5C188.388 20.5 188.717 21.1379 191.333 22.8276C193.95 24.5172 196.219 25.3276 196.219 25.3276C196.219 25.3276 195.526 29.1379 195.37 31.5517C195.232 33.9655 195.145 39 195.145 39" fill="#F5F6F6"/>
</g>
<defs>
<clipPath id="clip0_3446_2257">
<rect width="39" height="39" fill="white" transform="translate(183)"/>
</clipPath>
</defs>
</svg>
