<svg width="182" height="38" viewBox="0 0 182 38" fill="none" xmlns="http://www.w3.org/2000/svg">
<path d="M67.5752 28H65.958V22.0059H59.3662V28H57.749V15.1504H59.3662V20.582H65.958V15.1504H67.5752V28ZM75.1602 28H73.5342V16.5742H69.5176V15.1504H79.1504V16.5742H75.1602V28ZM81.1104 28V15.1504H82.7275V26.5586H88.3438V28H81.1104ZM102.512 24.5635C102.512 25.6826 102.107 26.5645 101.299 27.209C100.49 27.8535 99.3652 28.1758 97.9238 28.1758C96.4004 28.1758 95.2227 27.9736 94.3906 27.5693V26.0225C94.9355 26.2568 95.5303 26.4414 96.1748 26.5762C96.8252 26.7109 97.4316 26.7783 97.9941 26.7783C98.9551 26.7783 99.6787 26.5938 100.165 26.2246C100.651 25.8555 100.895 25.3486 100.895 24.7041C100.895 24.2764 100.807 23.9248 100.631 23.6494C100.455 23.374 100.159 23.1162 99.7432 22.876C99.333 22.6357 98.709 22.3633 97.8711 22.0586C96.6816 21.625 95.832 21.1152 95.3223 20.5293C94.8125 19.9375 94.5576 19.1758 94.5576 18.2441C94.5576 17.2422 94.9326 16.4453 95.6826 15.8535C96.4385 15.2617 97.4316 14.9658 98.6621 14.9658C99.9453 14.9658 101.126 15.2061 102.204 15.6865L101.703 17.0752C100.602 16.6182 99.5762 16.3896 98.627 16.3896C97.8652 16.3896 97.2676 16.5537 96.834 16.8818C96.4062 17.21 96.1924 17.6699 96.1924 18.2617C96.1924 18.6836 96.2744 19.0352 96.4385 19.3164C96.6084 19.5918 96.8779 19.8438 97.2471 20.0723C97.6221 20.3008 98.208 20.5615 99.0049 20.8545C99.96 21.2061 100.672 21.5488 101.141 21.8828C101.609 22.2109 101.955 22.5918 102.178 23.0254C102.4 23.4531 102.512 23.9658 102.512 24.5635ZM110.844 28L110.536 26.6289H110.466C109.985 27.2324 109.505 27.6426 109.024 27.8594C108.55 28.0703 107.949 28.1758 107.223 28.1758C106.273 28.1758 105.529 27.9268 104.99 27.4287C104.451 26.9307 104.182 26.2275 104.182 25.3193C104.182 23.3623 105.726 22.3369 108.813 22.2432L110.448 22.1816V21.6104C110.448 20.8779 110.29 20.3389 109.974 19.9932C109.657 19.6416 109.15 19.4658 108.453 19.4658C107.943 19.4658 107.46 19.542 107.003 19.6943C106.552 19.8467 106.127 20.0166 105.729 20.2041L105.245 19.0176C105.731 18.7598 106.262 18.5576 106.836 18.4111C107.41 18.2646 107.979 18.1914 108.541 18.1914C109.707 18.1914 110.574 18.4492 111.143 18.9648C111.711 19.4805 111.995 20.3008 111.995 21.4258V28H110.844ZM107.583 26.9014C108.468 26.9014 109.162 26.6641 109.666 26.1895C110.176 25.709 110.431 25.0293 110.431 24.1504V23.2803L109.007 23.3418C107.899 23.3828 107.091 23.5586 106.581 23.8691C106.077 24.1797 105.825 24.6689 105.825 25.3369C105.825 25.8408 105.978 26.2275 106.282 26.4971C106.593 26.7666 107.026 26.9014 107.583 26.9014ZM120.951 28L120.644 26.6289H120.573C120.093 27.2324 119.612 27.6426 119.132 27.8594C118.657 28.0703 118.057 28.1758 117.33 28.1758C116.381 28.1758 115.637 27.9268 115.098 27.4287C114.559 26.9307 114.289 26.2275 114.289 25.3193C114.289 23.3623 115.833 22.3369 118.921 22.2432L120.556 22.1816V21.6104C120.556 20.8779 120.397 20.3389 120.081 19.9932C119.765 19.6416 119.258 19.4658 118.561 19.4658C118.051 19.4658 117.567 19.542 117.11 19.6943C116.659 19.8467 116.234 20.0166 115.836 20.2041L115.353 19.0176C115.839 18.7598 116.369 18.5576 116.943 18.4111C117.518 18.2646 118.086 18.1914 118.648 18.1914C119.814 18.1914 120.682 18.4492 121.25 18.9648C121.818 19.4805 122.103 20.3008 122.103 21.4258V28H120.951ZM117.69 26.9014C118.575 26.9014 119.27 26.6641 119.773 26.1895C120.283 25.709 120.538 25.0293 120.538 24.1504V23.2803L119.114 23.3418C118.007 23.3828 117.198 23.5586 116.688 23.8691C116.185 24.1797 115.933 24.6689 115.933 25.3369C115.933 25.8408 116.085 26.2275 116.39 26.4971C116.7 26.7666 117.134 26.9014 117.69 26.9014ZM126.682 28H125.1V14.3242H126.682V28ZM134.188 19.5801H131.753V28H130.171V19.5801H128.483V18.8418L130.171 18.2969V17.7432C130.171 16.5713 130.426 15.6924 130.936 15.1064C131.451 14.5205 132.242 14.2275 133.309 14.2275C133.924 14.2275 134.548 14.3359 135.181 14.5527L134.759 15.792C134.214 15.6162 133.736 15.5283 133.326 15.5283C132.793 15.5283 132.397 15.7041 132.14 16.0557C131.882 16.4072 131.753 16.9639 131.753 17.7256V18.3496H134.188V19.5801ZM140.05 28.1758C138.603 28.1758 137.466 27.7393 136.64 26.8662C135.819 25.9873 135.409 24.7803 135.409 23.2451C135.409 21.6982 135.793 20.4678 136.561 19.5537C137.328 18.6338 138.365 18.1738 139.672 18.1738C140.885 18.1738 141.852 18.5664 142.572 19.3516C143.293 20.1309 143.653 21.1885 143.653 22.5244V23.4824H137.044C137.073 24.5781 137.352 25.4102 137.879 25.9785C138.406 26.5469 139.153 26.8311 140.12 26.8311C140.636 26.8311 141.125 26.7871 141.588 26.6992C142.051 26.6055 142.593 26.4268 143.214 26.1631V27.5518C142.681 27.7803 142.18 27.9414 141.711 28.0352C141.242 28.1289 140.688 28.1758 140.05 28.1758ZM139.654 19.4658C138.898 19.4658 138.301 19.709 137.861 20.1953C137.422 20.6816 137.161 21.3584 137.079 22.2256H141.992C141.98 21.3232 141.772 20.6377 141.368 20.1689C140.964 19.7002 140.393 19.4658 139.654 19.4658ZM147.688 28H146.105V14.3242H147.688V28ZM154.165 28.1758C152.911 28.1758 151.938 27.7422 151.247 26.875C150.556 26.0078 150.21 24.7803 150.21 23.1924C150.21 21.6162 150.556 20.3857 151.247 19.501C151.944 18.6162 152.923 18.1738 154.183 18.1738C155.478 18.1738 156.474 18.6484 157.171 19.5977H157.285C157.268 19.4805 157.244 19.2461 157.215 18.8945C157.186 18.5371 157.171 18.2969 157.171 18.1738V14.3242H158.753V28H157.479L157.241 26.708H157.171C156.497 27.6865 155.495 28.1758 154.165 28.1758ZM154.42 26.8662C155.381 26.8662 156.081 26.6055 156.521 26.084C156.966 25.5566 157.188 24.6953 157.188 23.5V23.21C157.188 21.8682 156.963 20.9131 156.512 20.3447C156.066 19.7705 155.363 19.4834 154.402 19.4834C153.588 19.4834 152.958 19.8086 152.513 20.459C152.067 21.1035 151.845 22.0264 151.845 23.2275C151.845 24.4229 152.064 25.3281 152.504 25.9434C152.949 26.5586 153.588 26.8662 154.42 26.8662ZM165.925 28.1758C164.478 28.1758 163.341 27.7393 162.515 26.8662C161.694 25.9873 161.284 24.7803 161.284 23.2451C161.284 21.6982 161.668 20.4678 162.436 19.5537C163.203 18.6338 164.24 18.1738 165.547 18.1738C166.76 18.1738 167.727 18.5664 168.447 19.3516C169.168 20.1309 169.528 21.1885 169.528 22.5244V23.4824H162.919C162.948 24.5781 163.227 25.4102 163.754 25.9785C164.281 26.5469 165.028 26.8311 165.995 26.8311C166.511 26.8311 167 26.7871 167.463 26.6992C167.926 26.6055 168.468 26.4268 169.089 26.1631V27.5518C168.556 27.7803 168.055 27.9414 167.586 28.0352C167.117 28.1289 166.563 28.1758 165.925 28.1758ZM165.529 19.4658C164.773 19.4658 164.176 19.709 163.736 20.1953C163.297 20.6816 163.036 21.3584 162.954 22.2256H167.867C167.855 21.3232 167.647 20.6377 167.243 20.1689C166.839 19.7002 166.268 19.4658 165.529 19.4658ZM178.555 28V21.8301C178.555 21.0449 178.379 20.4619 178.027 20.0811C177.682 19.6943 177.137 19.501 176.393 19.501C175.402 19.501 174.682 19.7764 174.23 20.3271C173.785 20.8721 173.562 21.7627 173.562 22.999V28H171.98V18.3496H173.255L173.492 19.668H173.58C173.879 19.1934 174.298 18.8271 174.837 18.5693C175.376 18.3057 175.971 18.1738 176.621 18.1738C177.805 18.1738 178.684 18.4609 179.258 19.0352C179.832 19.6094 180.119 20.5029 180.119 21.7158V28H178.555Z" fill="#3C3C3B"/>
<g clip-path="url(#clip0_3446_2260)">
<path d="M0.0311679 0.0307617C0.0311679 0.0307617 -0.606327 11.357 4.71131 16.9273C8.87835 21.2907 11.8637 22.4202 16.8237 22.5904C21.224 22.3429 22.2813 21.7858 22.9032 21.4609C22.8566 21.2133 22.7788 20.7646 22.4057 19.8827C22.048 18.9852 21.5971 18.258 21.5971 18.258C21.5971 18.258 20.0112 19.3875 18.2542 19.3875C16.4972 19.3875 13.5429 18.7686 12.0969 14.6064C10.6042 10.3203 10.4177 3.69787 10.4177 2.15057C10.4177 0.603264 10.4643 0.0771808 10.4643 0.0771808L0.0311679 0.0307617Z" fill="#3C3C3B"/>
<path d="M34.8912 34.9536C34.8912 34.9536 35.9796 23.225 30.833 17.5928C26.8059 13.1676 23.7895 12.2856 18.985 12.1309C14.7246 12.3784 13.4341 13.2294 12.8433 13.5544C12.8899 13.8019 12.8744 14.0031 13.232 14.9005C13.5896 15.798 14.025 16.4633 14.025 16.4633C14.025 16.4633 15.7509 15.3957 17.4457 15.3957C19.1405 15.3957 22.1103 16.2157 23.5096 20.4399C24.9401 24.7723 24.8157 31.2555 24.8157 32.8183C24.8157 34.3811 24.7691 34.9072 24.7691 34.9072L34.8601 34.9536H34.8912Z" fill="#3C3C3B"/>
<path d="M24.9713 0H34.8758C34.8758 0 35.0002 6.52962 34.6426 8.54111C33.6008 14.2661 31.1597 16.8966 31.1597 16.8966C31.1597 16.8966 30.2578 15.6278 28.1121 14.1578C25.9664 12.6724 24.1006 11.9761 24.1006 11.9761C24.1006 11.9761 24.8158 8.33996 24.9247 6.23563C25.0491 4.1313 24.9713 0.015473 24.9713 0.015473" fill="#3C3C3B"/>
<path d="M10.915 35H0.0776367C0.0776367 35 0.248672 30.6057 1.04165 26.6601C2.11451 21.3683 4.83552 18.3975 4.83552 18.3975C4.83552 18.3975 5.13095 18.97 7.47879 20.4863C9.82664 22.0027 11.8635 22.7299 11.8635 22.7299C11.8635 22.7299 11.2416 26.1494 11.1016 28.3157C10.9772 30.4819 10.8995 35 10.8995 35" fill="#3C3C3B"/>
</g>
<defs>
<clipPath id="clip0_3446_2260">
<rect width="35" height="35" fill="white"/>
</clipPath>
</defs>
</svg>
